<svg width="208" height="250" viewBox="0 0 208 250" fill="none" xmlns="http://www.w3.org/2000/svg">
<path d="M88.5124 59.4487C88.5124 59.4487 63.2018 119.364 92.7456 132.43L122.295 145.497L123.2 81.6093L88.5124 59.4487Z" fill="#383333"/>
<path d="M37.8078 118.025C37.8078 118.025 41.1411 91.3591 41.28 87.9092C41.4189 84.4592 33.7857 69.9151 35.7246 67.3263C37.6634 64.7374 43.9133 78.3371 44.6521 78.3371C45.391 78.3371 41.0411 62.1153 43.1688 60.6986C45.2966 59.282 50.202 76.2094 50.852 75.1928C51.502 74.1761 51.1298 59.4376 53.9964 59.4487C56.863 59.4598 55.5686 73.8928 56.0297 74.5428C56.4908 75.1928 60.9129 70.7262 64.7961 72.9373C68.6794 75.1483 67.6405 78.8927 66.5294 79.4482C65.4183 80.0038 65.3517 77.4316 62.6406 76.8761C59.9296 76.3205 58.3352 79.7038 58.7518 81.4149C59.1685 83.1259 61.324 84.5092 63.0573 83.887C64.7906 83.2648 64.8795 78.2649 67.5405 79.5149C70.2016 80.7649 68.0516 86.2314 65.2739 88.7369C62.4962 91.2424 60.5573 94.1535 60.1907 97.6701C59.824 101.187 59.3574 116.831 59.3574 116.831C59.3574 116.831 46.6021 123.114 37.8078 118.025Z" fill="#FFB08D"/>
<path d="M50.3295 0H42.7074C28.1335 0 16.3191 11.8144 16.3191 26.3883V26.3939C16.3191 40.9677 28.1335 52.7822 42.7074 52.7822H50.3295C64.9033 52.7822 76.7178 40.9677 76.7178 26.3939V26.3883C76.7178 11.8144 64.9033 0 50.3295 0Z" fill="#FFB833"/>
<path d="M54.5073 47.7546C54.5073 47.7546 57.1128 59.421 66.6126 60.271C66.6929 60.2776 66.7735 60.2633 66.8467 60.2294C66.9198 60.1956 66.9829 60.1435 67.0299 60.078C67.0769 60.0126 67.1061 59.9361 67.1148 59.856C67.1234 59.7759 67.1112 59.695 67.0793 59.621C66.1293 57.4599 63.6849 50.7323 67.407 45.2602L54.5073 47.7546Z" fill="#FFB833"/>
<path d="M33.4187 29.0272L43.5351 41.9047L64.068 11.4276" stroke="white" stroke-width="2.22217" stroke-linecap="round" stroke-linejoin="round"/>
<path d="M0.61674 31.1217L0.612811 31.1256C0.274364 31.464 0.274364 32.0128 0.612811 32.3512L5.96706 37.7055C6.30551 38.0439 6.85424 38.0439 7.19269 37.7055L7.19662 37.7015C7.53506 37.3631 7.53506 36.8144 7.19662 36.4759L1.84236 31.1217C1.50392 30.7832 0.955187 30.7832 0.61674 31.1217Z" fill="#FFB833"/>
<path d="M0.613973 37.702L0.617902 37.706C0.956348 38.0444 1.50508 38.0444 1.84352 37.706L7.19778 32.3517C7.53622 32.0133 7.53622 31.4645 7.19778 31.1261L7.19385 31.1222C6.8554 30.7837 6.30667 30.7837 5.96823 31.1222L0.613973 36.4764C0.275526 36.8149 0.275526 37.3636 0.613973 37.702Z" fill="#FFB833"/>
<path d="M18.9388 63.244L18.7384 63.4443C18.3631 63.8196 18.3631 64.4282 18.7384 64.8035L25.7308 71.7958C26.1061 72.1712 26.7146 72.1712 27.09 71.7958L27.2903 71.5955C27.6656 71.2202 27.6656 70.6116 27.2903 70.2363L20.298 63.244C19.9226 62.8686 19.3141 62.8686 18.9388 63.244Z" fill="#FFB833"/>
<path d="M18.7368 71.596L18.9371 71.7963C19.3124 72.1716 19.921 72.1716 20.2963 71.7963L27.2886 64.804C27.664 64.4286 27.664 63.8201 27.2886 63.4448L27.0883 63.2444C26.713 62.8691 26.1044 62.8691 25.7291 63.2444L18.7368 70.2368C18.3614 70.6121 18.3614 71.2206 18.7368 71.596Z" fill="#FFB833"/>
<path d="M87.273 7.15204L87.0727 7.35238C86.6973 7.72771 86.6973 8.33625 87.0727 8.71158L94.065 15.7039C94.4403 16.0792 95.0489 16.0792 95.4242 15.7039L95.6245 15.5036C95.9999 15.1282 95.9999 14.5197 95.6245 14.1444L88.6322 7.15205C88.2569 6.77672 87.6483 6.77672 87.273 7.15204Z" fill="#FFB833"/>
<path d="M87.0703 15.5058L87.2706 15.7061C87.6459 16.0815 88.2545 16.0815 88.6298 15.7061L95.6221 8.7138C95.9975 8.33848 95.9975 7.72994 95.6221 7.35461L95.4218 7.15427C95.0465 6.77894 94.4379 6.77895 94.0626 7.15427L87.0703 14.1466C86.6949 14.5219 86.6949 15.1305 87.0703 15.5058Z" fill="#FFB833"/>
<path d="M136.034 91.1925C136.034 91.1925 134.367 107.231 136.589 110.987C138.811 114.742 149.922 117.653 149.922 117.653L138.328 132.442L98.5122 127.231L95.3345 112.814C95.3345 112.814 103.729 111.225 106.273 110.809C108.818 110.392 111.651 95.7813 111.651 95.7813L129.889 90.3925L136.034 91.1925Z" fill="#FFB08D"/>
<path d="M123.183 94.1979C143.381 94.1979 159.755 77.8244 159.755 57.6265C159.755 37.4287 143.381 21.0551 123.183 21.0551C102.986 21.0551 86.6121 37.4287 86.6121 57.6265C86.6121 77.8244 102.986 94.1979 123.183 94.1979Z" fill="#FFB08D"/>
<path d="M137.916 91.0868C137.916 91.0868 119.345 104.625 99.1894 92.1979C79.0343 79.7704 89.2785 38.3102 89.2785 38.3102C89.2785 38.3102 104.623 18.8217 121.711 23.3939C138.8 27.966 138.589 57.8709 138.589 57.8709L137.916 91.0868Z" fill="#FFB08D"/>
<path d="M130.272 54.0265C128.666 52.4314 126.605 51.3736 124.372 50.9988C122.867 50.7211 120.828 50.3489 120.006 51.4322C119.824 51.6653 119.708 51.9425 119.669 52.2354C119.63 52.5283 119.67 52.8262 119.784 53.0988C120.339 54.1599 122.261 53.5877 125.15 54.021C128.95 54.5765 131.189 56.4209 131.522 55.9154C131.767 55.5654 130.695 54.4599 130.272 54.0265Z" fill="#383333"/>
<path d="M90.9843 50.3322C92.8299 49.021 95.0368 48.3145 97.3008 48.31C98.8341 48.31 100.906 48.2545 101.534 49.46C101.672 49.7182 101.739 50.0082 101.73 50.3008C101.72 50.5933 101.633 50.8782 101.478 51.1266C100.751 52.0822 98.9507 51.1989 96.0341 51.1266C92.1898 51.0544 89.6787 52.4933 89.4343 51.9377C89.251 51.5988 90.4954 50.6878 90.9843 50.3322Z" fill="#383333"/>
<path d="M108.512 58.9431C108.512 58.9431 104.879 64.6597 105.179 65.9096C105.479 67.1596 110.323 67.5207 110.323 67.5207" stroke="#383333" stroke-width="0.555543" stroke-linecap="round" stroke-linejoin="round"/>
<path d="M130.87 73.8114C131.076 72.3593 129.354 70.9144 127.024 70.584C124.694 70.2537 122.638 71.163 122.432 72.615C122.226 74.0671 123.948 75.5121 126.278 75.8424C128.608 76.1728 130.664 75.2635 130.87 73.8114Z" fill="#FF8C5F"/>
<path d="M96.9525 68.8831C97.1584 67.4311 95.4365 65.9861 93.1065 65.6558C90.7765 65.3254 88.7208 66.2347 88.5149 67.6868C88.309 69.1388 90.0309 70.5838 92.3609 70.9142C94.6909 71.2445 96.7466 70.3352 96.9525 68.8831Z" fill="#FF8C5F"/>
<path d="M143.472 59.1043C144.166 58.3865 145 57.8189 145.922 57.4366C146.844 57.0544 147.835 56.8656 148.833 56.8821C150.041 56.9025 151.21 57.3116 152.166 58.0487C155.25 60.8265 154.311 69.7151 149.155 72.154C146.272 73.504 143.15 72.3151 142.094 71.854C142.561 67.6022 143.02 63.3523 143.472 59.1043Z" fill="#FFB08D"/>
<path d="M151.05 62.043L146.011 61.9374C146.011 61.9374 151.211 64.9985 147.027 69.2373" stroke="#383333" stroke-width="0.416657" stroke-linecap="round" stroke-linejoin="round"/>
<path d="M137.872 106.148C128.818 107.972 119.439 107.305 110.734 104.22C110.438 104.115 110.124 104.071 109.81 104.089C109.497 104.107 109.19 104.188 108.908 104.326C108.626 104.464 108.375 104.657 108.168 104.893C107.962 105.13 107.805 105.405 107.706 105.703C107.223 107.181 106.467 108.864 105.484 109.214C97.7673 111.886 92.0452 112.592 85.6342 116.103C76.6622 121.019 75.9233 135.786 75.3845 146.536C74.49 163.863 78.5122 172.007 80.7344 186.874C82.401 197.984 83.3398 214.484 78.8122 235.661C90.2438 240.845 102.511 243.94 115.034 244.8C141.361 246.567 161.616 237.817 171.016 232.973C166.546 223.003 163.193 212.569 161.016 201.862C156.355 178.89 157.477 156.113 157.555 154.608C158.638 134.686 162.555 120.719 156.022 116.581C152.355 114.264 146.922 116.025 141.616 111.197C140.061 109.765 138.79 108.052 137.872 106.148V106.148Z" fill="#FF8D93"/>
<path d="M106.356 113.153C106.356 113.153 88.6897 112.77 79.8121 118.375C70.9345 123.981 33.4187 170.802 33.4187 170.802L48.3184 187.868C52.656 185.946 56.8517 183.718 60.8737 181.201C74.3789 172.785 81.9843 163.552 91.7674 151.535C105.1 135.086 106.517 128.503 107.078 124.064C107.495 120.413 107.251 116.717 106.356 113.153V113.153Z" fill="#FF8D93"/>
<path d="M59.8799 101.853C60.8632 109.448 69.5241 180.09 48.319 187.868C47.7635 188.068 43.4802 189.574 39.3859 187.563C20.7863 178.418 36.997 112.486 39.8303 101.248C42.434 99.5916 45.4209 98.6349 48.5023 98.47C52.5656 98.3006 56.5694 99.4912 59.8799 101.853Z" fill="#FF8D93"/>
<path d="M127.867 94.6924C127.867 94.6924 118.128 98.3979 111.395 96.9868" stroke="#383333" stroke-width="0.555543" stroke-linecap="round" stroke-linejoin="round"/>
<path d="M110.312 81.7649C109.553 82.325 108.628 82.6132 107.685 82.583C106.743 82.5527 105.838 82.2058 105.117 81.5982" stroke="#383333" stroke-width="0.416657" stroke-linecap="round" stroke-linejoin="round"/>
<path d="M133.461 113.309C150.233 109.709 159.083 115.136 161.639 116.914C167.472 120.981 171.427 127.564 179.127 140.369C179.683 141.297 180.555 142.769 183.383 147.83C199.599 176.852 203.715 187.274 206.404 196.89C206.704 198.001 206.96 198.846 207.038 199.251L195.627 203.345C190.538 200.674 185.695 197.558 181.155 194.035C165.538 181.901 156.8 167.424 152.055 157.524C145.863 142.795 139.665 128.056 133.461 113.309Z" fill="#FF8D93"/>
<path d="M121.845 30.566C121.845 30.566 117.867 51.8322 140.533 56.8654C140.533 56.8654 137.678 69.0596 142.105 73.215C142.105 73.215 143.566 59.1487 144.805 58.0098C146.044 56.8709 149.933 56.5487 151.611 57.6265C153.288 58.7042 154.3 61.8764 153.75 65.2874C153.627 66.0263 152.983 68.2262 148.022 72.5484C145.998 74.4502 143.761 76.1112 141.355 77.4983C135.105 81.1482 123.9 95.059 124.6 111.631C124.683 113.586 125.789 133.025 140.066 139.541C145.439 141.991 150.711 141.713 153.922 141.208C153.922 141.208 146.889 120.214 149.922 112.509C149.922 112.509 157.749 113.325 163.049 117.964C168.349 122.603 169.766 125.464 169.766 125.464C169.766 125.464 178.821 114.997 173.221 90.3702C167.621 65.743 169.46 15.8996 127.867 18.3107C127.867 18.3107 79.3845 6.03873 87.4121 49.2378C87.401 49.2267 98.2396 28.566 121.845 30.566Z" fill="#383333"/>
<path d="M131.417 199.018L136.844 220.356C197.854 219.201 205.793 207.773 207.071 202.468C208.537 196.357 203.66 187.879 197.293 184.868C189.299 181.096 181.538 187.146 165.116 192.513C154.193 196.057 142.874 198.242 131.417 199.018V199.018Z" fill="#FF8D93"/>
<path d="M82.6343 139.897C82.6343 139.897 74.3011 158.741 82.6343 169.935" stroke="#383333" stroke-width="0.555543" stroke-linecap="round" stroke-linejoin="round"/>
<path d="M127.962 159.185H71.3852C68.725 159.185 66.5686 161.342 66.5686 164.002V245.184C66.5686 247.844 68.725 250 71.3852 250H127.962C130.622 250 132.778 247.844 132.778 245.184V164.002C132.778 161.342 130.622 159.185 127.962 159.185Z" fill="white"/>
<path d="M124.434 166.068H74.918C73.1538 166.068 71.7236 167.499 71.7236 169.263V239.911C71.7236 241.676 73.1538 243.106 74.918 243.106H124.434C126.198 243.106 127.628 241.676 127.628 239.911V169.263C127.628 167.499 126.198 166.068 124.434 166.068Z" fill="#7D91AE"/>
<path d="M111.062 158.28H88.29C86.535 158.28 85.1123 159.702 85.1123 161.457V166.174C85.1123 167.929 86.535 169.352 88.29 169.352H111.062C112.817 169.352 114.239 167.929 114.239 166.174V161.457C114.239 159.702 112.817 158.28 111.062 158.28Z" fill="#FFB833"/>
<path d="M107.667 154.697H91.6843C90.4571 154.697 89.4622 155.691 89.4622 156.919V160.735C89.4622 161.963 90.4571 162.957 91.6843 162.957H107.667C108.895 162.957 109.889 161.963 109.889 160.735V156.919C109.889 155.691 108.895 154.697 107.667 154.697Z" fill="#FFB833"/>
<path d="M79.6067 180.552H119.745" stroke="white" stroke-width="1.66663" stroke-linecap="round" stroke-linejoin="round"/>
<path d="M79.6067 188.207H119.745" stroke="white" stroke-width="1.66663" stroke-linecap="round" stroke-linejoin="round"/>
<path d="M79.6067 195.862H119.745" stroke="white" stroke-width="1.66663" stroke-linecap="round" stroke-linejoin="round"/>
<path d="M79.6067 203.518H119.745" stroke="white" stroke-width="1.66663" stroke-linecap="round" stroke-linejoin="round"/>
<path d="M79.6067 211.173H119.745" stroke="white" stroke-width="1.66663" stroke-linecap="round" stroke-linejoin="round"/>
<path d="M79.6067 218.829H119.745" stroke="white" stroke-width="1.66663" stroke-linecap="round" stroke-linejoin="round"/>
<path d="M79.6067 226.484H119.745" stroke="white" stroke-width="1.66663" stroke-linecap="round" stroke-linejoin="round"/>
<path d="M79.6067 234.134H119.745" stroke="white" stroke-width="1.66663" stroke-linecap="round" stroke-linejoin="round"/>
<path d="M137.434 198.462C137.434 198.462 152.989 196.123 158.694 194.44" stroke="#383333" stroke-width="0.555543" stroke-linecap="round" stroke-linejoin="round"/>
<path d="M138.405 218.506C138.405 218.506 155.205 220.078 165.51 218.767" stroke="#383333" stroke-width="0.555543" stroke-linecap="round" stroke-linejoin="round"/>
<path d="M175.049 188.862C175.049 188.862 185.566 182.751 194.81 186.135" stroke="#383333" stroke-width="0.555543" stroke-linecap="round" stroke-linejoin="round"/>
<path d="M150.678 145.497C150.678 145.497 151.078 160.163 157.211 166.424" stroke="#383333" stroke-width="0.555543" stroke-linecap="round" stroke-linejoin="round"/>
<path d="M45.3022 81.4148C45.3022 81.4148 50.4855 77.8704 55.4798 76.9705" stroke="#383333" stroke-width="0.416657" stroke-linecap="round" stroke-linejoin="round"/>
<path d="M59.7352 84.0704C59.7352 84.0704 57.0519 85.087 55.4797 88.7925" stroke="#383333" stroke-width="0.416657" stroke-linecap="round" stroke-linejoin="round"/>
<path d="M137.956 199.418C137.698 198.378 137.039 197.484 136.122 196.929C135.39 196.54 134.56 196.372 133.734 196.446C129.211 196.707 119.539 201.762 120.339 203.818C120.701 204.745 123.195 205.079 130.617 203.679C129.261 204.279 124.606 206.457 123.189 209.545C123.088 209.697 123.023 209.871 123 210.052C122.977 210.233 122.996 210.417 123.056 210.59C123.662 211.701 127.612 210.668 131.056 209.562C131.056 209.562 122.956 214.512 124 216.945C125.045 219.378 132.778 215.051 132.778 215.051C132.778 215.051 126.056 220.462 127.012 222.023C127.967 223.584 139.411 219.678 140.283 216.467C140.501 215.775 140.439 215.026 140.111 214.379C139.776 213.849 139.264 213.456 138.667 213.267C140.017 212.156 140.556 210.49 140.05 209.145C139.775 208.473 139.279 207.915 138.645 207.562C138.918 207.045 139.078 206.477 139.116 205.894C139.153 205.31 139.066 204.726 138.861 204.179C138.547 203.43 138.012 202.795 137.328 202.357C137.625 201.934 137.834 201.456 137.941 200.951C138.049 200.446 138.054 199.925 137.956 199.418Z" fill="#FFB08D"/>
<path d="M130.617 203.696C130.617 203.696 135.572 202.09 137.328 202.379" stroke="#383333" stroke-width="0.416657" stroke-linecap="round" stroke-linejoin="round"/>
<path d="M131.056 209.579C131.056 209.579 136.867 207.229 138.644 207.584" stroke="#383333" stroke-width="0.416657" stroke-linecap="round" stroke-linejoin="round"/>
<path d="M132.778 215.067C132.778 215.067 137.078 213.206 138.667 213.29" stroke="#383333" stroke-width="0.416657" stroke-linecap="round" stroke-linejoin="round"/>
<path fill-rule="evenodd" clip-rule="evenodd" d="M90.1787 56.9599C90.312 56.8266 91.212 58.071 92.4342 57.9321C93.1175 57.8488 93.3064 57.4376 94.1342 57.0821C94.8582 56.7914 95.656 56.7389 96.4119 56.9321C96.6119 57.0932 96.8397 57.3265 96.7897 57.4877C96.7063 57.7932 95.9897 57.7321 95.1841 57.921C93.6008 58.2821 93.4453 59.1932 92.5231 59.1876C91.0953 59.2098 89.9954 57.121 90.1787 56.9599Z" fill="#383333"/>
<path fill-rule="evenodd" clip-rule="evenodd" d="M94.9062 56.8599L92.7229 59.1709C94.3618 57.8432 95.4673 57.7487 96.1784 57.9099C97.7783 58.2765 98.2283 59.3154 100.245 59.9098C100.539 59.9931 100.801 60.0431 100.928 60.0709C97.545 56.8043 95.8395 56.421 94.9062 56.8599Z" fill="#383333"/>
<path fill-rule="evenodd" clip-rule="evenodd" d="M130.734 60.6154C130.628 60.4654 129.539 61.5487 128.356 61.2153C127.695 61.0265 127.573 60.5876 126.812 60.1043C126.142 59.7068 125.365 59.53 124.589 59.5987C124.367 59.7265 124.106 59.9209 124.128 60.1154C124.162 60.432 124.878 60.482 125.645 60.7931C127.145 61.4042 127.156 62.332 128.073 62.4598C129.461 62.6875 130.878 60.7987 130.734 60.6154Z" fill="#383333"/>
<path fill-rule="evenodd" clip-rule="evenodd" d="M126.067 59.7598L127.856 62.3931C126.45 60.8209 125.372 60.5487 124.645 60.5987C122.978 60.7098 122.422 61.6597 120.311 61.9264C120.079 61.9574 119.845 61.9742 119.611 61.9764C123.467 59.2876 125.217 59.1765 126.067 59.7598Z" fill="#383333"/>
<path fill-rule="evenodd" clip-rule="evenodd" d="M101.479 74.7649C106.258 75.7713 111.207 75.6342 115.923 74.3649C114.095 78.0426 110.923 80.5148 107.706 80.2981C101.812 79.8981 101.479 74.7649 101.479 74.7649Z" fill="white"/>
<path d="M62.4572 136.025C62.4572 136.025 66.646 166.841 57.4573 177.357" stroke="#383333" stroke-width="0.555543" stroke-linecap="round" stroke-linejoin="round"/>
<path d="M129.034 33.5881C129.034 33.5881 135.261 51.0877 146.011 52.1266" stroke="white" stroke-width="0.555543" stroke-linecap="round" stroke-linejoin="round"/>
<path d="M136.678 33.5881C136.678 33.5881 143.255 48.9045 157.477 50.2211" stroke="white" stroke-width="0.555543" stroke-linecap="round" stroke-linejoin="round"/>
<path d="M90.134 39.2769C90.134 39.2769 95.1784 15.4552 122.4 24.5216" stroke="white" stroke-width="0.555543" stroke-linecap="round" stroke-linejoin="round"/>
<path d="M146.011 82.0926C146.011 82.0926 119.623 112.164 136.411 129.23" stroke="white" stroke-width="0.555543" stroke-linecap="round" stroke-linejoin="round"/>
<path d="M143.878 103.364C143.878 103.364 136.145 122.564 144.945 132.43" stroke="white" stroke-width="0.555543" stroke-linecap="round" stroke-linejoin="round"/>
<path d="M160.544 73.215C160.544 73.215 169.477 102.164 167.611 113.897" stroke="white" stroke-width="0.555543" stroke-linecap="round" stroke-linejoin="round"/>
<path d="M91.3458 91.0869C91.3458 91.0869 85.7348 103.631 88.4126 110.92" stroke="white" stroke-width="0.555543" stroke-linecap="round" stroke-linejoin="round"/>
<path d="M98.8118 98.4535C98.8118 98.4535 95.3064 103.487 96.4119 108.52" stroke="white" stroke-width="0.555543" stroke-linecap="round" stroke-linejoin="round"/>
</svg>
