<svg width="240" height="242" viewBox="0 0 240 242" fill="none" xmlns="http://www.w3.org/2000/svg">
<g clip-path="url(#clip0_209_186)">
<path d="M136.828 137.151C134.428 155.061 137.401 173.423 145.038 189.472C133.2 181.944 121.17 174.739 108.957 167.842C105.179 165.71 101.636 171.643 105.43 173.785C121.737 183.002 137.733 192.779 153.362 203.104C156.035 204.865 160.053 201.228 158.118 198.438C145.854 180.716 140.69 158.843 143.616 137.129C144.216 132.733 137.408 132.788 136.828 137.151Z" fill="#F2994A"/>
<path d="M72.5151 33.8034C72.928 74.1009 86.2083 112.162 106.749 144.402C112.581 153.543 118.947 162.226 125.83 170.445C128.757 173.932 133.999 168.734 131.072 165.246C107.806 137.435 89.8322 103.688 82.6873 66.2339C80.6676 55.6257 79.5644 44.7847 79.4549 33.8424C79.4177 29.0759 72.4722 28.9922 72.5151 33.8034V33.8034Z" fill="#F2994A"/>
</g>
<defs>
<clipPath id="clip0_209_186">
<rect width="188.303" height="183.784" fill="white" transform="translate(0 175.685) rotate(-68.9058)"/>
</clipPath>
</defs>
</svg>
