<svg width="122" height="122" viewBox="0 0 122 122" fill="none" xmlns="http://www.w3.org/2000/svg">
<path d="M117.941 27.9486C115.506 25.3973 112.143 23.8897 108.316 23.8897H89.0646V23.6577C89.0646 20.7585 87.9049 17.9752 85.9335 16.1197C83.962 14.1482 81.2947 12.9885 78.3954 12.9885H43.6046C40.5894 12.9885 37.9221 14.1482 35.9506 16.1197C33.9791 18.0912 32.8194 20.7585 32.8194 23.6577V23.8897H13.6844C9.85742 23.8897 6.4943 25.3973 4.05894 27.9486C1.62357 30.384 0 33.8631 0 37.5741V95.3269C0 99.1539 1.5076 102.517 4.05894 104.952C6.4943 107.388 9.97338 109.011 13.6844 109.011H108.316C112.143 109.011 115.506 107.504 117.941 104.952C120.376 102.517 122 99.038 122 95.3269V37.5741C122 33.7471 120.492 30.384 117.941 27.9486ZM115.97 95.3269H115.854C115.854 97.4144 115.042 99.2699 113.65 100.662C112.259 102.053 110.403 102.865 108.316 102.865H13.6844C11.597 102.865 9.74145 102.053 8.34981 100.662C6.95817 99.2699 6.14639 97.4144 6.14639 95.3269V37.5741C6.14639 35.4866 6.95817 33.6311 8.34981 32.2395C9.74145 30.8478 11.597 30.0361 13.6844 30.0361H36.0665C37.8061 30.0361 39.1977 28.6444 39.1977 26.9049V23.5418C39.1977 22.2661 39.6616 21.1064 40.4734 20.2946C41.2852 19.4828 42.4449 19.0189 43.7205 19.0189H78.3954C79.6711 19.0189 80.8308 19.4828 81.6426 20.2946C82.4544 21.1064 82.9183 22.2661 82.9183 23.5418V26.9049C82.9183 28.6444 84.3099 30.0361 86.0494 30.0361H108.432C110.519 30.0361 112.375 30.8478 113.766 32.2395C115.158 33.6311 115.97 35.4866 115.97 37.5741V95.3269Z" fill="#828282"/>
<path d="M60.9997 37.9221C53.1138 37.9221 45.9237 41.1693 40.821 46.2719C35.6024 51.4906 32.4712 58.5647 32.4712 66.4506C32.4712 74.3366 35.7183 81.5267 40.821 86.6293C46.0396 91.848 53.1138 94.9792 60.9997 94.9792C68.8856 94.9792 76.0758 91.732 81.1784 86.6293C86.397 81.4107 89.5282 74.3366 89.5282 66.4506C89.5282 58.5647 86.2811 51.3746 81.1784 46.2719C76.0758 41.1693 68.8856 37.9221 60.9997 37.9221ZM76.7716 82.3385C72.7126 86.2814 67.1461 88.8328 60.9997 88.8328C54.8533 88.8328 49.2868 86.2814 45.2278 82.3385C41.1689 78.2795 38.7336 72.713 38.7336 66.5666C38.7336 60.4202 41.2849 54.8537 45.2278 50.7947C49.2868 46.7358 54.8533 44.3004 60.9997 44.3004C67.1461 44.3004 72.7126 46.8518 76.7716 50.7947C80.8305 54.8537 83.2659 60.4202 83.2659 66.5666C83.3818 72.713 80.8305 78.2795 76.7716 82.3385Z" fill="#828282"/>
<path d="M102.285 49.1712C105.423 49.1712 107.968 46.627 107.968 43.4887C107.968 40.3503 105.423 37.8062 102.285 37.8062C99.1467 37.8062 96.6025 40.3503 96.6025 43.4887C96.6025 46.627 99.1467 49.1712 102.285 49.1712Z" fill="#828282"/>
</svg>
