<svg width="122" height="122" viewBox="0 0 122 122" fill="none" xmlns="http://www.w3.org/2000/svg">
<path d="M77.8276 44.2012C76.2495 44.2012 74.9705 45.4802 74.9705 47.0583V101.058C74.9705 102.635 76.2495 103.915 77.8276 103.915C79.4057 103.915 80.6847 102.635 80.6847 101.058V47.0583C80.6847 45.4802 79.4057 44.2012 77.8276 44.2012Z" fill="#828282"/>
<path d="M44.1145 44.2012C42.5363 44.2012 41.2573 45.4802 41.2573 47.0583V101.058C41.2573 102.635 42.5363 103.915 44.1145 103.915C45.6926 103.915 46.9716 102.635 46.9716 101.058V47.0583C46.9716 45.4802 45.6926 44.2012 44.1145 44.2012Z" fill="#828282"/>
<path d="M19.5427 36.3206V106.714C19.5427 110.875 21.0684 114.782 23.7335 117.586C26.3864 120.397 30.0784 121.993 33.9422 122H88.0001C91.865 121.993 95.557 120.397 98.2088 117.586C100.874 114.782 102.4 110.875 102.4 106.714V36.3206C107.698 34.9143 111.131 29.796 110.422 24.3597C109.712 18.9244 105.082 14.8586 99.5994 14.8575H84.9711V11.2861C84.9878 8.28272 83.8003 5.3988 81.6742 3.27715C79.5481 1.15662 76.6597 -0.0241781 73.6564 0.000375404H48.2859C45.2826 -0.0241781 42.3942 1.15662 40.2681 3.27715C38.142 5.3988 36.9545 8.28272 36.9712 11.2861V14.8575H22.3429C16.8608 14.8586 12.2302 18.9244 11.5204 24.3597C10.8117 29.796 14.2447 34.9143 19.5427 36.3206V36.3206ZM88.0001 116.286H33.9422C29.0572 116.286 25.257 112.089 25.257 106.714V36.5717H96.6853V106.714C96.6853 112.089 92.8851 116.286 88.0001 116.286ZM42.6855 11.2861C42.6665 9.79834 43.2513 8.36642 44.3071 7.3162C45.3618 6.26598 46.7971 5.68897 48.2859 5.71464H73.6564C75.1452 5.68897 76.5805 6.26598 77.6352 7.3162C78.691 8.36531 79.2758 9.79834 79.2568 11.2861V14.8575H42.6855V11.2861ZM22.3429 20.5717H99.5994C102.44 20.5717 104.742 22.8742 104.742 25.7146C104.742 28.555 102.44 30.8574 99.5994 30.8574H22.3429C19.5025 30.8574 17.2001 28.555 17.2001 25.7146C17.2001 22.8742 19.5025 20.5717 22.3429 20.5717V20.5717Z" fill="#828282"/>
<path d="M60.9716 44.2012C59.3935 44.2012 58.1145 45.4802 58.1145 47.0583V101.058C58.1145 102.635 59.3935 103.915 60.9716 103.915C62.5498 103.915 63.8288 102.635 63.8288 101.058V47.0583C63.8288 45.4802 62.5498 44.2012 60.9716 44.2012Z" fill="#828282"/>
</svg>
