<svg width="104" height="105" viewBox="0 0 104 105" fill="none" xmlns="http://www.w3.org/2000/svg">
<path d="M102 0H1.99992C0.895313 0 0 0.782633 0 1.74776V14.4024C0 14.8086 0.162188 15.2021 0.45797 15.5152L39.9999 57.3465V103.122C39.9999 103.728 40.3592 104.29 40.9482 104.609C41.2695 104.782 41.6346 104.87 42 104.87C42.3057 104.87 42.6122 104.808 42.8946 104.685L62.8946 95.9462C63.5724 95.65 64.0001 95.045 64.0001 94.3828V57.3465L103.542 15.5154C103.838 15.2023 104 14.8088 104 14.4026V1.74776C104 0.782633 103.104 0 102 0ZM99.9999 13.7736L60.4578 55.6046C60.162 55.9178 59.9998 56.3113 59.9998 56.7175V93.3025L43.9997 100.294V56.7175C43.9997 56.3113 43.8375 55.9178 43.5418 55.6046L3.99985 13.7736V3.49573H99.9999V13.7736Z" fill="#BDBDBD"/>
</svg>
