<svg width="114" height="114" viewBox="0 0 114 114" fill="none" xmlns="http://www.w3.org/2000/svg">
<path fill-rule="evenodd" clip-rule="evenodd" d="M33.2495 36.8123C29.9703 36.8123 27.312 39.4705 27.312 42.7498C27.312 46.029 29.9703 48.6873 33.2495 48.6873C36.5287 48.6873 39.187 46.029 39.187 42.7498C39.187 39.4705 36.5287 36.8123 33.2495 36.8123ZM20.187 42.7498C20.187 35.5356 26.0353 29.6873 33.2495 29.6873C40.4637 29.6873 46.312 35.5356 46.312 42.7498C46.312 49.9641 40.4637 55.8123 33.2495 55.8123C26.0353 55.8123 20.187 49.9641 20.187 42.7498Z" fill="#828282"/>
<path fill-rule="evenodd" clip-rule="evenodd" d="M48.1916 74.1221C42.2551 80.7697 36.0638 89.8621 29.5181 101.497C28.5533 103.212 26.3811 103.82 24.6664 102.855C22.9516 101.89 22.3437 99.7179 23.3084 98.0032C29.9914 86.1248 36.4707 76.5498 42.877 69.3763C49.267 62.2205 55.7579 57.2581 62.5053 54.9216C69.3823 52.54 76.2489 52.986 83.0191 56.1419C89.6705 59.2422 96.1148 64.898 102.515 72.7512C103.758 74.2764 103.529 76.5208 102.004 77.7634C100.479 79.0065 98.2348 78.7775 96.9917 77.2523C90.9468 69.8347 85.3081 65.07 80.009 62.5995C74.8286 60.1851 69.8763 59.9091 64.837 61.6543C59.6676 63.4445 54.1438 67.4569 48.1916 74.1221V74.1221Z" fill="#828282"/>
<path fill-rule="evenodd" clip-rule="evenodd" d="M7.7954 17.2956C12.0268 13.0642 17.7657 10.6875 23.7495 10.6875H58.3295C60.297 10.6875 61.892 12.2825 61.892 14.25C61.892 16.2175 60.297 17.8125 58.3295 17.8125H23.7495C19.6551 17.8125 15.7285 19.4388 12.8335 22.3337C9.93851 25.2288 8.31201 29.1556 8.31201 33.25V80.75C8.31201 84.844 9.93841 88.7704 12.8335 91.6655C15.7287 94.5611 19.6553 96.1875 23.7495 96.1875H80.7495C84.8435 96.1875 88.7704 94.5611 91.6655 91.6655C94.5606 88.7704 96.187 84.844 96.187 80.75V57C96.187 55.0326 97.7821 53.4375 99.7495 53.4375C101.717 53.4375 103.312 55.0326 103.312 57V80.75C103.312 86.7341 100.935 92.4725 96.7038 96.7038C92.4725 100.935 86.7336 103.313 80.7495 103.313H23.7495C17.7654 103.313 12.0266 100.935 7.7954 96.7038C3.56414 92.4725 1.18701 86.7341 1.18701 80.75V33.25C1.18701 27.2661 3.56406 21.527 7.7954 17.2956V17.2956Z" fill="#828282"/>
<path fill-rule="evenodd" clip-rule="evenodd" d="M89.0625 0.379761C91.03 0.379761 92.625 1.97474 92.625 3.94226V41.9423C92.625 43.9098 91.03 45.5048 89.0625 45.5048C87.095 45.5048 85.5 43.9098 85.5 41.9423V3.94226C85.5 1.97474 87.095 0.379761 89.0625 0.379761V0.379761Z" fill="#828282"/>
<path fill-rule="evenodd" clip-rule="evenodd" d="M86.5472 1.42319C87.9384 0.0319516 90.1937 0.0319516 91.585 1.42319L106.785 16.6232C108.176 18.0144 108.176 20.2701 106.785 21.6613C105.394 23.0526 103.138 23.0526 101.747 21.6613L89.0661 8.98037L76.385 21.6613C74.9937 23.0526 72.738 23.0526 71.3472 21.6613C69.9559 20.2701 69.9559 18.0144 71.3472 16.6232L86.5472 1.42319Z" fill="#828282"/>
</svg>
