<svg width="108" height="94" viewBox="0 0 108 94" fill="none" xmlns="http://www.w3.org/2000/svg">
<path d="M54.3132 33.1779C48.2712 33.1779 43.373 38.0758 43.373 44.118C43.373 50.1599 48.271 55.0581 54.3132 55.0581C60.3551 55.0581 65.2533 50.1601 65.2533 44.118C65.2533 38.0758 60.3553 33.1779 54.3132 33.1779ZM54.3132 49.8483C51.1482 49.8483 48.5826 47.2826 48.5826 44.1177C48.5826 40.9528 51.1482 38.3872 54.3132 38.3872C57.4781 38.3872 60.0437 40.9528 60.0437 44.1177C60.0437 47.2826 57.4781 49.8483 54.3132 49.8483Z" fill="#67A9EF"/>
<path d="M97.943 8.17187L26.8328 0.0972891C24.073 -0.295085 21.2767 0.510603 19.1488 2.31144C17.0212 3.9612 15.6574 6.40668 15.3719 9.08375L14.0697 19.7634H10.032C4.30144 19.7634 0.00351963 24.8425 0.00351963 30.5731V83.8405C-0.140816 89.3051 4.17206 93.8523 9.63688 93.9966C9.7685 94.0001 9.90037 94.0008 10.032 93.9991H81.5328C87.2634 93.9991 92.4729 89.571 92.4729 83.8405V81.7567C94.2496 81.4135 95.935 80.7037 97.422 79.673C99.5322 77.8963 100.883 75.3803 101.199 72.6401L107.19 19.7634C107.801 14.0196 103.679 8.85267 97.943 8.17187ZM87.2634 83.8405C87.2634 86.7058 84.3981 88.7895 81.5328 88.7895H10.032C7.44367 88.8656 5.28387 86.8289 5.20784 84.2406C5.20385 84.1072 5.20559 83.9739 5.21307 83.8405V74.2029L25.4001 59.3557C27.8252 57.4938 31.2409 57.6594 33.475 59.7464L47.671 72.2493C49.8268 74.0593 52.5405 75.0712 55.3552 75.1145C57.5559 75.1415 59.7204 74.5554 61.6068 73.4214L87.2636 58.5742V83.8405H87.2634ZM87.2634 52.4531L58.8714 68.9933C56.4334 70.4377 53.3475 70.1762 51.1872 68.3422L36.861 55.709C32.755 52.1808 26.7538 51.9645 22.4045 55.188L5.21307 67.6908V30.5731C5.21307 27.7078 7.16672 24.9729 10.032 24.9729H81.5328C84.594 25.0998 87.0662 27.5159 87.2634 30.5731V52.4531V52.4531ZM101.985 19.0601C101.984 19.0773 101.982 19.0948 101.98 19.112L95.859 71.9888C95.8695 73.3598 95.2442 74.6583 94.1658 75.5052C93.6448 76.0262 92.4727 76.2867 92.4727 76.5472V30.5731C92.267 24.6399 87.4678 19.8977 81.5326 19.7634H19.279L20.4511 9.60476C20.7054 8.28928 21.3931 7.0972 22.4047 6.21847C23.547 5.42874 24.928 5.06055 26.312 5.17646L97.2921 13.3814C100.156 13.6534 102.257 16.1958 101.985 19.0601Z" fill="#67A9EF"/>
</svg>
