<svg width="186" height="207" viewBox="0 0 186 207" fill="none" xmlns="http://www.w3.org/2000/svg">
<path d="M114.585 66.3234L0 100.747V177.847L0.00768128 177.845C0.0137457 179.431 1.18014 181.092 3.40701 182.378L11.6551 187.139L19.9031 191.901C23.5766 194.022 29.0196 194.49 32.7307 193.003L41.8718 189.34C67.2463 179.172 89.1309 166.537 106.742 151.887L113.086 146.609C114.095 145.77 114.577 144.776 114.578 143.751L114.585 143.749V66.3234H114.585Z" fill="url(#paint0_linear_209_110)"/>
<path d="M72.7137 55.0172L81.8553 51.3543C85.5663 49.8673 91.0094 50.3347 94.6824 52.4556L102.93 57.2174L111.179 61.9792C114.852 64.1002 115.661 67.2428 113.086 69.3851L106.742 74.6628C89.1314 89.3129 67.2468 101.948 41.8719 112.115L32.7304 115.778C29.0197 117.265 23.5763 116.798 19.9032 114.677L11.6552 109.915L3.40712 105.153C-0.266318 103.032 -1.07572 99.8897 1.49965 97.7474L7.84388 92.4697C25.4546 77.8196 47.3392 65.1845 72.7137 55.0172V55.0172Z" fill="url(#paint1_linear_209_110)"/>
<path d="M1.49965 97.7473C-1.07572 99.8897 -0.266318 103.032 3.40712 105.153L7.26371 107.38H25.6152V95.8641H3.76331L1.49965 97.7473Z" fill="url(#paint2_linear_209_110)"/>
<path d="M41.3208 69.8303H90.2282V58.3147H64.8282C56.585 61.8895 48.7344 65.7303 41.3208 69.8303V69.8303Z" fill="url(#paint3_linear_209_110)"/>
<path d="M98.5629 30.5132C98.5629 19.4994 92.8688 9.63657 83.3302 4.13004C73.7924 -1.37688 62.4042 -1.37648 52.866 4.13004C30.1401 17.2507 16.0225 41.703 16.0225 67.9447V101.644L16.039 101.645C16.0495 103.036 17.0631 104.501 19.0474 105.647C22.6942 107.753 28.2108 107.981 31.3692 106.158C32.8149 105.323 33.5071 104.202 33.4925 103.031L33.5095 103.032V67.9443C33.5095 47.9304 44.2772 29.2805 61.6094 19.2734C65.6734 16.9277 70.5237 16.9273 74.5877 19.2734C78.6505 21.6191 81.0763 25.821 81.0763 30.5128V64.1463L81.0957 64.1479C81.1353 65.5209 82.1464 66.9594 84.1016 68.0878C87.7484 70.1934 93.265 70.4218 96.4234 68.5984C97.7927 67.808 98.4913 66.7613 98.5492 65.658L98.5633 65.6592V30.5132H98.5629Z" fill="url(#paint4_linear_209_110)"/>
<path d="M88.0192 64.1896V33.6074C88.0192 20.4778 73.8057 12.2718 62.4353 18.8364V18.8368C66.2094 16.9944 70.5427 17.0785 74.2642 19.0931C78.5413 21.4085 81.0762 26.0147 81.0762 30.8783V64.1467L81.0956 64.1483C81.1352 65.5213 82.1464 66.9598 84.1016 68.0882C87.7483 70.1938 93.265 70.4222 96.4233 68.5988C97.3233 68.0793 97.9281 67.4478 98.2568 66.7633C91.497 67.639 88.0192 64.1896 88.0192 64.1896V64.1896Z" fill="url(#paint5_linear_209_110)"/>
<path d="M87.8624 122.93C87.8624 115.687 83.4588 112.358 78.0266 115.494C72.5945 118.63 68.1909 127.045 68.1909 134.288C68.1909 139.287 70.2896 142.421 73.3756 142.852V153.808C73.3756 157.233 75.4581 158.807 78.0266 157.324C80.5955 155.841 82.6777 151.862 82.6777 148.438V137.481C85.7637 133.486 87.8624 127.93 87.8624 122.93Z" fill="url(#paint6_linear_209_110)"/>
<path d="M97.1143 147.102V164.606L97.1264 164.606C97.1341 165.644 97.8901 166.737 99.3698 167.591C102.09 169.161 106.203 169.331 108.558 167.972C109.637 167.349 110.153 166.513 110.142 165.64L110.154 165.641V147.102H97.1143Z" fill="url(#paint7_linear_209_110)"/>
<path d="M97.1143 164.606L110.154 165.64V147.102H97.1143V164.606Z" fill="url(#paint8_linear_209_110)"/>
<path d="M185.738 181.185C185.738 165.729 176.341 147.774 164.749 141.081C159.497 138.049 154.7 137.857 151.019 139.983C151.019 139.98 151.018 139.973 151.018 139.973L138.23 147.395C138.23 147.395 131.349 180.536 143.081 190.57C154.812 200.605 165.428 205.731 165.428 205.731L178.744 198.004C178.744 198.004 178.728 198.011 178.706 198.02C183.019 195.385 185.738 189.495 185.738 181.185ZM157.901 170.915C158.13 169.142 158.234 167.115 158.234 165.129C158.234 163.724 158.165 162.21 158.036 160.707L168.64 187.078C167.862 186.967 165.216 185.929 164.724 185.643C160.473 183.177 157.229 176.124 157.901 170.915V170.915Z" fill="url(#paint9_linear_209_110)"/>
<path d="M185.738 181.185C185.738 180.902 185.729 180.617 185.722 180.332L169.459 189.722L165.428 205.731L178.743 198.004C178.743 198.004 178.728 198.011 178.706 198.02C183.019 195.385 185.738 189.495 185.738 181.185Z" fill="url(#paint10_linear_209_110)"/>
<path d="M167.454 186.829C167.05 186.717 166.638 186.573 166.219 186.395C165.715 186.18 165.216 185.929 164.723 185.643C160.472 183.177 157.228 176.124 157.9 170.915C158.129 169.142 158.234 167.115 158.234 165.129C158.234 163.724 158.165 162.21 158.036 160.707C158.036 160.707 143.228 147.298 141.015 160.707C139.324 170.953 140.712 185.518 145.962 192.956C148.04 194.625 150.055 196.133 151.952 197.477C162.044 200.013 166.249 191.964 166.249 191.964C166.249 191.964 166.971 189.996 167.454 186.829V186.829Z" fill="url(#paint11_linear_209_110)"/>
<path d="M167.454 186.829C167.05 186.717 166.638 186.573 166.219 186.395C165.715 186.18 165.216 185.929 164.723 185.643C160.472 183.177 157.228 176.124 157.9 170.915C158.129 169.142 158.234 167.115 158.234 165.129C158.234 163.724 158.165 162.21 158.036 160.707C158.036 160.707 143.228 147.298 141.015 160.707C139.324 170.953 140.712 185.518 145.962 192.956C148.04 194.625 150.055 196.133 151.952 197.477C162.044 200.013 166.249 191.964 166.249 191.964C166.249 191.964 166.971 189.996 167.454 186.829V186.829Z" fill="url(#paint12_linear_209_110)"/>
<path d="M81.6748 138.201V155.705L81.6869 155.707C81.6946 156.744 82.4507 157.837 83.9304 158.691C86.6501 160.261 90.7638 160.432 93.1192 159.072C94.1975 158.449 94.7138 157.614 94.7025 156.74L94.715 156.741V138.202H81.6748V138.201Z" fill="url(#paint13_linear_209_110)"/>
<path d="M81.6746 155.706L94.7152 156.74V138.201H81.6746V155.706Z" fill="url(#paint14_linear_209_110)"/>
<path d="M86.9887 120.272L86.9855 120.279C85.8631 119.631 84.4028 119.684 82.8014 120.609C79.2666 122.649 76.4014 128.124 76.4014 132.837C76.4014 135.438 77.2763 137.257 78.6521 138.028L78.6497 138.034L138.581 172.567L146.919 154.808L86.9887 120.272Z" fill="url(#paint15_linear_209_110)"/>
<path d="M151.949 148.51C140.357 141.818 130.96 148.922 130.96 164.378C130.96 179.834 140.357 197.789 151.949 204.481C163.541 211.174 172.938 204.07 172.938 188.614C172.938 173.158 163.541 155.203 151.949 148.51ZM164.446 185.614C163.812 192.933 159.18 196.455 153.419 194.001C152.915 193.786 152.416 193.534 151.923 193.249C147.672 190.783 144.428 183.73 145.101 178.521C145.329 176.747 145.434 174.721 145.434 172.735C145.434 170.815 145.307 168.691 145.071 166.67C144.366 160.637 147.571 157.246 151.849 159.671C151.882 159.69 151.915 159.709 151.949 159.728C159.365 164.01 165.282 175.984 164.446 185.614Z" fill="url(#paint16_linear_209_110)"/>
<defs>
<linearGradient id="paint0_linear_209_110" x1="22.1664" y1="130.096" x2="33.707" y2="130.096" gradientUnits="userSpaceOnUse">
<stop stop-color="#FFA538"/>
<stop offset="1" stop-color="#F7E041"/>
</linearGradient>
<linearGradient id="paint1_linear_209_110" x1="20.0791" y1="62.0811" x2="89.6554" y2="102.251" gradientUnits="userSpaceOnUse">
<stop stop-color="#FFA538"/>
<stop offset="1" stop-color="#FCF3B3"/>
</linearGradient>
<linearGradient id="paint2_linear_209_110" x1="27.1503" y1="101.622" x2="-7.50768" y2="101.622" gradientUnits="userSpaceOnUse">
<stop offset="0.0319" stop-color="#8B451C"/>
<stop offset="1" stop-color="#8B451C" stop-opacity="0"/>
</linearGradient>
<linearGradient id="paint3_linear_209_110" x1="96.2902" y1="64.0727" x2="51.9251" y2="64.0727" gradientUnits="userSpaceOnUse">
<stop offset="0.0319" stop-color="#8B451C"/>
<stop offset="1" stop-color="#8B451C" stop-opacity="0"/>
</linearGradient>
<linearGradient id="paint4_linear_209_110" x1="57.2927" y1="93.3398" x2="57.2927" y2="-14.0492" gradientUnits="userSpaceOnUse">
<stop stop-color="#DFDAEF"/>
<stop offset="1" stop-color="white"/>
</linearGradient>
<linearGradient id="paint5_linear_209_110" x1="80.3457" y1="-2.0953" x2="80.3457" y2="51.2092" gradientUnits="userSpaceOnUse">
<stop offset="0.0319" stop-color="#7662BD"/>
<stop offset="1" stop-color="#7662BD" stop-opacity="0"/>
</linearGradient>
<linearGradient id="paint6_linear_209_110" x1="78.0262" y1="106.824" x2="78.0262" y2="152.456" gradientUnits="userSpaceOnUse">
<stop stop-color="#322A50"/>
<stop offset="1" stop-color="#43386B"/>
</linearGradient>
<linearGradient id="paint7_linear_209_110" x1="100.102" y1="157.996" x2="107.317" y2="157.996" gradientUnits="userSpaceOnUse">
<stop stop-color="#FFA538"/>
<stop offset="1" stop-color="#F7E041"/>
</linearGradient>
<linearGradient id="paint8_linear_209_110" x1="108.274" y1="148.334" x2="102.081" y2="159.062" gradientUnits="userSpaceOnUse">
<stop offset="0.0319" stop-color="#8B451C"/>
<stop offset="1" stop-color="#8B451C" stop-opacity="0"/>
</linearGradient>
<linearGradient id="paint9_linear_209_110" x1="172.488" y1="194.24" x2="146.475" y2="149.183" gradientUnits="userSpaceOnUse">
<stop stop-color="#E37A34"/>
<stop offset="0.1732" stop-color="#FFA538"/>
<stop offset="0.6592" stop-color="#F7E041"/>
<stop offset="1" stop-color="#FCF3B3"/>
</linearGradient>
<linearGradient id="paint10_linear_209_110" x1="180.186" y1="201.017" x2="175.027" y2="192.082" gradientUnits="userSpaceOnUse">
<stop offset="0.0319" stop-color="#8B451C"/>
<stop offset="1" stop-color="#8B451C" stop-opacity="0"/>
</linearGradient>
<linearGradient id="paint11_linear_209_110" x1="147.554" y1="169.209" x2="162.988" y2="195.94" gradientUnits="userSpaceOnUse">
<stop stop-color="#E37A34"/>
<stop offset="1" stop-color="#FFA538"/>
</linearGradient>
<linearGradient id="paint12_linear_209_110" x1="141.761" y1="159.174" x2="150.925" y2="175.047" gradientUnits="userSpaceOnUse">
<stop offset="0.0319" stop-color="#8B451C"/>
<stop offset="1" stop-color="#8B451C" stop-opacity="0"/>
</linearGradient>
<linearGradient id="paint13_linear_209_110" x1="84.9387" y1="149.095" x2="91.6981" y2="149.095" gradientUnits="userSpaceOnUse">
<stop stop-color="#FFA538"/>
<stop offset="1" stop-color="#F7E041"/>
</linearGradient>
<linearGradient id="paint14_linear_209_110" x1="92.8352" y1="139.434" x2="86.6413" y2="150.162" gradientUnits="userSpaceOnUse">
<stop offset="0.0319" stop-color="#8B451C"/>
<stop offset="1" stop-color="#8B451C" stop-opacity="0"/>
</linearGradient>
<linearGradient id="paint15_linear_209_110" x1="108.135" y1="149.636" x2="116.324" y2="135.453" gradientUnits="userSpaceOnUse">
<stop stop-color="#FFA538"/>
<stop offset="0.3408" stop-color="#F7E041"/>
<stop offset="0.654" stop-color="#FCF3B3"/>
<stop offset="1" stop-color="#F7E041"/>
</linearGradient>
<linearGradient id="paint16_linear_209_110" x1="151.949" y1="231.304" x2="151.949" y2="149.434" gradientUnits="userSpaceOnUse">
<stop stop-color="#FFA538"/>
<stop offset="1" stop-color="#F7E041"/>
</linearGradient>
</defs>
</svg>
