<svg width="86" height="86" viewBox="0 0 86 86" fill="none" xmlns="http://www.w3.org/2000/svg">
<path d="M84.4247 81.2704L62.4188 59.4351C68.1814 53.1218 71.7222 44.7723 71.7222 35.5847C71.7194 15.9305 55.6651 0 35.8597 0C16.0543 0 0 15.9305 0 35.5847C0 55.2388 16.0543 71.1693 35.8597 71.1693C44.417 71.1693 52.2656 68.1847 58.4306 63.2228L80.5218 85.1442C81.5982 86.2135 83.3458 86.2135 84.4222 85.1442C85.5011 84.0751 85.5011 82.3396 84.4247 81.2704ZM35.8597 65.6944C19.1021 65.6944 5.51752 52.2139 5.51752 35.5847C5.51752 18.9555 19.1021 5.47491 35.8597 5.47491C52.6174 5.47491 66.2019 18.9555 66.2019 35.5847C66.2019 52.2139 52.6174 65.6944 35.8597 65.6944Z" fill="#828282"/>
</svg>
