<svg width="129" height="105" viewBox="0 0 129 105" fill="none" xmlns="http://www.w3.org/2000/svg">
<g clip-path="url(#clip0_209_283)">
<path d="M85.7618 48.8728L40.3222 48.8728L48.8308 40.386C49.8398 39.3797 49.8398 37.7478 48.8308 36.7413C48.3262 36.2382 47.6649 35.9865 47.0036 35.9865C46.3423 35.9865 45.681 36.2382 45.1766 36.7414L32.2572 49.6278C31.2481 50.6341 31.2481 52.2661 32.2572 53.2726L45.1766 66.1589C46.1855 67.1653 47.8217 67.1653 48.8308 66.1589C49.8398 65.1526 49.8398 63.5207 48.8308 62.5142L40.3222 54.0274L85.7618 54.0274C87.1888 54.0274 88.3457 52.8734 88.3457 51.4501C88.3457 50.0268 87.1888 48.8728 85.7618 48.8728Z" fill="white"/>
</g>
<defs>
<clipPath id="clip0_209_283">
<rect width="56.8454" height="56.7" fill="white" transform="translate(88.3457 79.8) rotate(-180)"/>
</clipPath>
</defs>
</svg>
