<svg width="278" height="271" viewBox="0 0 278 271" fill="none" xmlns="http://www.w3.org/2000/svg">
<path d="M264.753 0H131.395C124.473 0 118.861 5.61145 118.861 12.5335V118.897C118.861 125.819 124.473 131.431 131.395 131.431H264.753C271.675 131.431 277.287 125.819 277.287 118.897V12.5335C277.287 5.61145 271.675 0 264.753 0Z" fill="#F2994A"/>
<path d="M141.322 30.7603C147.116 30.7603 151.814 26.0631 151.814 20.2687C151.814 14.4743 147.116 9.77704 141.322 9.77704C135.528 9.77704 130.83 14.4743 130.83 20.2687C130.83 26.0631 135.528 30.7603 141.322 30.7603Z" fill="#FFF3E3"/>
<path d="M261.913 34.808H137.178C135.138 34.808 133.485 36.4616 133.485 38.5014V99.1631C133.485 101.203 135.138 102.857 137.178 102.857H261.913C263.953 102.857 265.606 101.203 265.606 99.1631V38.5014C265.606 36.4616 263.953 34.808 261.913 34.808Z" fill="#FFF3E3"/>
<path d="M141.322 125.209C145.687 125.209 149.225 121.671 149.225 117.306C149.225 112.941 145.687 109.403 141.322 109.403C136.957 109.403 133.418 112.941 133.418 117.306C133.418 121.671 136.957 125.209 141.322 125.209Z" fill="#FFF3E3"/>
<path d="M164.461 125.209C168.826 125.209 172.364 121.671 172.364 117.306C172.364 112.941 168.826 109.403 164.461 109.403C160.096 109.403 156.558 112.941 156.558 117.306C156.558 121.671 160.096 125.209 164.461 125.209Z" fill="#FFF3E3"/>
<path d="M187.594 125.209C191.959 125.209 195.498 121.671 195.498 117.306C195.498 112.941 191.959 109.403 187.594 109.403C183.23 109.403 179.691 112.941 179.691 117.306C179.691 121.671 183.23 125.209 187.594 125.209Z" fill="#FFF3E3"/>
<path d="M158.642 16.0948H210.734" stroke="white" stroke-width="1.80166" stroke-linecap="round" stroke-linejoin="round"/>
<path d="M158.642 25.031H198.074" stroke="white" stroke-width="1.80166" stroke-linecap="round" stroke-linejoin="round"/>
<path d="M179.361 161.813C179.361 161.813 187.709 152.42 192.693 148.511C197.678 144.601 202.867 142.121 204.752 142.889C206.638 143.658 200.903 148.499 200.903 148.499C205.27 147.91 209.522 146.663 213.514 144.799C219.43 141.862 223.454 138.283 225.526 140.247C227.597 142.211 218.697 155.543 210.806 161.032C202.915 166.521 194.927 170.695 190.135 176.382C190.135 176.382 177.469 170.196 179.361 161.813Z" fill="#FFDB99"/>
<path d="M199.9 168.263C193.541 173.625 188.625 180.494 185.601 188.243L180.49 201.185L159.471 188.694C159.471 188.694 171.95 166.179 183.433 157.369L199.9 168.263Z" fill="#FFDB99"/>
<path d="M102.047 6.05999L102.008 6.09821C101.638 6.46877 101.638 7.06956 102.008 7.44012L108.06 13.4914C108.43 13.862 109.031 13.862 109.402 13.4914L109.44 13.4532C109.81 13.0827 109.81 12.4819 109.44 12.1113L103.388 6.05999C103.018 5.68943 102.417 5.68944 102.047 6.05999Z" fill="#FFB833"/>
<path d="M102.01 13.4517L102.049 13.4899C102.419 13.8604 103.02 13.8604 103.39 13.4899L109.442 7.43855C109.812 7.06799 109.812 6.4672 109.442 6.09664L109.404 6.05842C109.033 5.68786 108.432 5.68786 108.062 6.05842L102.01 12.1097C101.64 12.4803 101.64 13.0811 102.01 13.4517Z" fill="#FFB833"/>
<path d="M32.6552 117.86L32.3706 118.144C31.9649 118.55 31.9649 119.208 32.3706 119.613L40.2862 127.529C40.6919 127.935 41.3498 127.935 41.7555 127.529L42.04 127.244C42.4458 126.839 42.4458 126.181 42.04 125.775L34.1245 117.86C33.7187 117.454 33.0609 117.454 32.6552 117.86Z" fill="#FFB833"/>
<path d="M32.3651 127.242L32.6496 127.526C33.0554 127.932 33.7132 127.932 34.1189 127.526L42.0345 119.611C42.4402 119.205 42.4402 118.547 42.0345 118.142L41.75 117.857C41.3442 117.451 40.6864 117.451 40.2807 117.857L32.3651 125.773C31.9594 126.178 31.9594 126.836 32.3651 127.242Z" fill="#FFB833"/>
<path d="M149.659 147.591L149.375 147.875C148.969 148.281 148.969 148.939 149.375 149.345L157.29 157.26C157.696 157.666 158.354 157.666 158.759 157.26L159.044 156.976C159.45 156.57 159.45 155.912 159.044 155.506L151.128 147.591C150.723 147.185 150.065 147.185 149.659 147.591Z" fill="#FFB833"/>
<path d="M149.38 156.983L149.665 157.267C150.07 157.673 150.728 157.673 151.134 157.267L159.05 149.352C159.455 148.946 159.455 148.288 159.05 147.882L158.765 147.598C158.359 147.192 157.702 147.192 157.296 147.598L149.38 155.513C148.974 155.919 148.974 156.577 149.38 156.983Z" fill="#FFB833"/>
<path d="M53.4852 140.061C35.6428 140.505 28.0218 148.15 25.8598 150.57C20.9352 156.102 18.533 163.723 13.8908 178.55C13.5545 179.625 13.026 181.325 11.3985 187.132C2.0719 220.403 0.438403 231.963 0.0660611 242.353C0.0240225 243.554 0.00600552 244.461 0 244.899L12.5275 246.256C17.0242 242.317 21.1641 237.988 24.8989 233.321C37.7387 217.244 43.0536 200.476 45.4378 189.312C48.1202 172.893 50.8027 156.476 53.4852 140.061Z" fill="#FF8D93"/>
<path d="M104.322 138.571C122.158 138.019 130.2 145.22 132.482 147.514C137.701 152.762 140.523 160.239 146.012 174.779C146.409 175.83 147.027 177.499 148.979 183.186C160.167 215.911 162.443 227.339 163.392 237.687C163.5 238.858 163.566 239.788 163.603 240.227L151.159 242.287C146.448 238.606 142.073 234.514 138.085 230.06C124.362 214.733 118.117 198.29 115.108 187.276L104.322 138.571Z" fill="#FF8D93"/>
<path d="M70.1146 117.108C70.1146 117.108 69.8264 127.918 66.9257 133.238C64.025 138.559 50.2904 138.409 39.4565 146.307C28.6225 154.204 40.3213 180.286 36.4537 255.457C36.4537 255.457 95.524 267.522 126.699 258.376C126.699 258.376 121.546 213.37 124.801 182.171C128.056 150.973 122.885 146.535 116.423 143.592C109.961 140.649 94.455 136.109 93.0858 132.686C91.7165 129.263 90.8217 117.75 90.8217 117.75L70.1146 117.108Z" fill="#FFDB99"/>
<path d="M116.423 81.9033C116.873 81.4949 119.318 79.3209 122.711 79.6692C124.103 79.7579 125.429 80.2976 126.488 81.2066C129.857 84.5457 128.242 94.7431 122.182 97.2053C118.801 98.5746 115.288 97.0252 114.105 96.4366C114.849 91.5882 115.622 86.7437 116.423 81.9033Z" fill="#FFC871"/>
<path d="M124.915 85.7348L119.15 85.3084C119.15 85.3084 124.921 89.1279 119.87 93.7161" stroke="#383333" stroke-width="0.450414" stroke-linecap="round" stroke-linejoin="round"/>
<path d="M44.9574 79.8734C44.531 79.435 42.2189 77.1289 38.8077 77.285C38.3093 77.285 36.3214 77.3931 34.9522 78.6062C31.3969 81.7531 32.4299 92.0226 38.3453 94.8212C41.6483 96.3826 45.2396 95.0313 46.4528 94.5089L44.9574 79.8734Z" fill="#FFC871"/>
<path d="M36.2134 83.2305L41.9967 83.1224C41.9967 83.1224 35.9912 86.6176 40.7956 91.5302" stroke="#383333" stroke-width="0.450414" stroke-linecap="round" stroke-linejoin="round"/>
<path d="M80.4439 117.51C102.968 117.51 121.227 99.2507 121.227 76.7266C121.227 54.2024 102.968 35.9431 80.4439 35.9431C57.9198 35.9431 39.6604 54.2024 39.6604 76.7266C39.6604 99.2507 57.9198 117.51 80.4439 117.51Z" fill="#FFDB99"/>
<path d="M39.7627 73.7958C39.7627 78.5642 40.3212 102.514 58.1876 116.843C61.4727 119.48 68.1628 124.699 77.7957 125.377C95.566 126.632 107.907 111.33 110.37 108.274C118.97 97.6197 120.639 85.9871 121.041 80.534C121.041 80.534 77.1411 47.7199 39.7627 73.7958Z" fill="#FFDB99"/>
<path d="M108.616 75.135C106.493 73.503 103.917 72.5675 101.241 72.4566C99.4394 72.3545 96.9771 72.2163 96.1724 73.6096C95.994 73.9137 95.8999 74.2599 95.8999 74.6125C95.8999 74.9651 95.994 75.3114 96.1724 75.6155C96.9831 76.7805 99.1752 75.8197 102.61 75.8977C107.157 76.0058 110.057 77.8255 110.381 77.1829C110.568 76.7205 109.144 75.5794 108.616 75.135Z" fill="#383333"/>
<path d="M56.1456 74.7387C58.3938 73.2891 61.0334 72.5658 63.7065 72.6668C65.5082 72.7088 67.9764 72.7629 68.6671 74.2222C68.8243 74.5379 68.8938 74.8901 68.8685 75.2418C68.8431 75.5936 68.7238 75.9321 68.5229 76.222C67.6221 77.3211 65.5202 76.222 62.085 75.9938C57.5388 75.7416 54.506 77.3271 54.2358 76.6604C54.0436 76.162 55.551 75.141 56.1456 74.7387Z" fill="#383333"/>
<path d="M82.3237 81.5911C82.3237 81.5911 85.2664 89.0439 84.6358 90.4312C84.0052 91.8185 78.2939 91.1519 78.2939 91.1519" stroke="#383333" stroke-width="0.600552" stroke-linecap="round" stroke-linejoin="round"/>
<path d="M110.774 91.7489C110.8 90.0144 108.563 88.5741 105.777 88.5318C102.992 88.4895 100.712 89.8612 100.686 91.5957C100.659 93.3301 102.896 94.7705 105.682 94.8128C108.468 94.8551 110.747 93.4833 110.774 91.7489Z" fill="#FFC871"/>
<path d="M63.5196 91.0298C63.5459 89.2954 61.309 87.855 58.5232 87.8127C55.7375 87.7704 53.4578 89.1422 53.4315 90.8766C53.4051 92.6111 55.6421 94.0514 58.4278 94.0937C61.2136 94.1361 63.4933 92.7643 63.5196 91.0298Z" fill="#FFC871"/>
<path d="M102.418 138.127C99.8599 145.334 95.65 148.192 93.9504 149.177C84.7019 154.522 69.7902 150.588 58.9503 137.875C58.9503 137.875 35.6728 142.793 33.1565 151.916C30.6402 161.038 38.9699 232.185 29.5532 264.021C29.5532 264.021 78.3481 280.602 135.503 259.607C134.007 254.532 132.626 249.103 131.455 243.344C128.377 228.163 127.103 212.671 127.659 197.191C127.978 196.477 128.416 195.462 128.861 194.231C130.062 191.036 140.007 164.539 126.795 148.703C119.75 140.259 108.52 138.505 102.418 138.127Z" fill="#FF8D93"/>
<path fill-rule="evenodd" clip-rule="evenodd" d="M90.5512 99.4093C83.9924 98.2054 77.2543 98.3854 70.769 99.9378C71.0453 100.37 74.1742 105.121 80.0356 105.343C82.1635 105.411 84.2693 104.893 86.1235 103.847C87.9777 102.801 89.5092 101.266 90.5512 99.4093V99.4093Z" fill="white"/>
<path d="M91.3498 123.167C91.3498 123.167 80.3657 127.533 69.5498 123.594" stroke="#383333" stroke-width="0.450414" stroke-linecap="round" stroke-linejoin="round"/>
<path d="M78.2939 108.099C79.211 108.5 80.2155 108.658 81.2112 108.559C82.2069 108.46 83.1606 108.108 83.9812 107.535" stroke="#383333" stroke-width="0.450414" stroke-linecap="round" stroke-linejoin="round"/>
<path d="M102.382 231.813L77.9217 229.201C75.8377 228.979 74.5105 226.985 74.991 224.751L86.7438 169.656C87.2182 167.422 89.2421 166.143 91.2359 166.791L114.657 174.382C116.321 174.929 117.312 176.989 116.885 178.995L106.322 228.51C105.871 230.504 104.124 231.987 102.382 231.813Z" fill="#383333"/>
<path d="M75.5855 201.497C77.9156 196.957 76.9247 192.489 79.0687 191.942C79.5229 191.867 79.9893 191.95 80.3899 192.177C81.591 192.879 81.8613 194.849 81.7592 198.663C81.6871 201.281 81.6751 202.806 82.612 202.981C83.5488 203.155 91.308 197.245 93.512 194.159C95.716 191.072 96.6048 186.874 98.2744 186.622C99.9439 186.369 98.4305 193.276 98.4305 193.276C98.4305 193.276 100.761 188.093 102.851 187.871C104.94 187.649 101.319 195.888 101.319 195.888C101.319 195.888 103.872 192.069 105.163 192.885C106.454 193.702 104.184 199.521 102.364 201.593C102.364 201.593 104.58 199.269 105.703 199.846C106.826 200.422 104.322 205.347 99.025 212.457C93.7282 219.568 81.0745 222.601 77.3751 224.949C75.2761 226.235 73.4033 227.858 71.832 229.753C71.832 229.753 62.8718 221.346 62.5415 213.046C63.1421 212.632 64.0729 212.001 65.1659 211.196C70.9853 206.89 73.8919 204.752 75.5855 201.497Z" fill="#FFDB99"/>
<path d="M67.2138 208.031L75.3333 229.453C75.3333 229.453 34.9401 257.499 19.7642 259.583C4.58823 261.667 -4.79239 247.169 2.76255 237.963C10.3175 228.756 42.7894 214.007 67.2138 208.031Z" fill="#FF8D93"/>
<path d="M171.073 166.779L191.672 176.809C191.672 176.809 181.463 224.919 171.854 236.864C162.245 248.809 145.466 244.671 144.673 232.798C143.88 220.925 157.381 187.871 171.073 166.779Z" fill="#FF8D93"/>
<path d="M57.2805 84.5757C57.7273 83.5109 58.4786 82.6018 59.4402 81.9624C60.4017 81.3231 61.5308 80.982 62.6855 80.982C63.8402 80.982 64.9692 81.3231 65.9308 81.9624C66.8924 82.6018 67.6437 83.5109 68.0905 84.5757" stroke="#383333" stroke-width="0.600552" stroke-linecap="round" stroke-linejoin="round"/>
<path d="M106.484 84.5757C106.037 83.5109 105.286 82.6018 104.324 81.9624C103.363 81.3231 102.234 80.982 101.079 80.982C99.9243 80.982 98.7953 81.3231 97.8337 81.9624C96.8721 82.6018 96.1208 83.5109 95.6741 84.5757" stroke="#383333" stroke-width="0.600552" stroke-linecap="round" stroke-linejoin="round"/>
<path d="M38.7838 77.297C40.4654 82.9542 41.3001 84.3775 41.7445 84.2995C42.7775 84.1193 40.7656 75.8917 45.1437 71.9101C46.3868 70.769 46.9874 71.0393 48.1464 69.664C50.5486 66.7874 50.4285 62.6556 50.3925 61.4184C50.3024 58.4157 49.4977 57.9773 50.0742 57.1425C51.6056 54.9565 57.1908 58.5778 61.5508 55.479C67.0278 51.5814 64.3313 47.9841 68.8775 44.7891C73.4237 41.5942 77.9578 51.0829 84.7321 49.2813C91.5063 47.4796 96.4969 40.273 102.196 47.5817C107.895 54.8904 104.658 54.1878 110.37 58.3916C116.081 62.5955 114.682 69.3817 116.976 73.1772C119.27 76.9727 116.591 87.1461 119.15 87.8307C121.708 88.5153 123.071 79.1707 122.969 68.2827C122.969 68.2827 128.813 68.4809 129.341 59.875C129.87 51.2691 121.096 52.0678 122.032 47.1853C122.969 42.3028 121.87 34.7479 111.823 32.7721C101.776 30.7963 98.785 18.0886 85.5969 18.6891C72.4087 19.2897 70.6611 30.3999 63.5206 25.4513C56.38 20.5028 43.7924 24.3643 43.6423 31.2767C43.6469 32.2264 43.4179 33.1627 42.9757 34.0032C40.099 39.228 34.5679 38.6995 30.256 43.8883C27.7217 46.9391 26.0521 51.8336 27.6556 55.2988C29.187 58.6439 32.2858 57.4308 35.1505 60.998C38.0151 64.5653 35.9012 67.6101 38.7838 77.297Z" fill="#383333"/>
<path d="M30.1537 47.7859C29.1483 49.3577 28.5005 51.131 28.256 52.9807C27.4573 59.4126 32.1596 65.1179 32.4599 65.4662C33.8351 67.0997 35.3485 68.2468 36.4535 70.9613C36.8939 72.0525 37.1965 73.1943 37.3544 74.3604C37.9909 78.4381 39.8106 90.0828 42.351 90.245C42.6911 90.2286 43.0126 90.085 43.2518 89.8426C44.8012 88.6415 43.8103 85.8369 43.6481 81.9514C43.528 79.1048 43.9124 77.0388 44.6451 73.0572C45.0505 70.8634 45.586 68.6955 46.2485 66.5652C44.5914 65.1791 43.2289 63.4749 42.2417 61.5532C41.2546 59.6314 40.6628 57.5313 40.5013 55.3769L30.1537 47.7859Z" fill="#383333"/>
<path d="M98.4485 193.246C98.4485 193.246 95.8722 199.443 93.3198 201.239" stroke="#383333" stroke-width="0.450414" stroke-linecap="round" stroke-linejoin="round"/>
<path d="M101.337 195.852C101.337 195.852 98.9351 201.389 96.8452 203.563" stroke="#383333" stroke-width="0.450414" stroke-linecap="round" stroke-linejoin="round"/>
<path d="M102.382 201.575C101.341 203.751 100.018 205.78 98.4485 207.611" stroke="#383333" stroke-width="0.450414" stroke-linecap="round" stroke-linejoin="round"/>
<path d="M32.8564 168.899L32.9465 219.802" stroke="#383333" stroke-width="0.600552" stroke-linecap="round" stroke-linejoin="round"/>
<path d="M2.76245 237.987C2.76245 237.987 13.8006 228.378 26.7425 222.709C39.6844 217.04 67.7002 209.31 67.7002 209.31" stroke="#383333" stroke-width="0.600552" stroke-linecap="round" stroke-linejoin="round"/>
<path d="M74.4446 227.099C74.4446 227.099 46.2186 244.413 31.4871 255.595" stroke="#383333" stroke-width="0.600552" stroke-linecap="round" stroke-linejoin="round"/>
<path d="M126.675 161.879C126.675 161.879 126.777 200.915 127.72 213.208" stroke="#383333" stroke-width="0.600552" stroke-linecap="round" stroke-linejoin="round"/>
<path d="M151.045 225.621C151.045 225.621 148.943 210.47 154.216 198.975" stroke="#383333" stroke-width="0.600552" stroke-linecap="round" stroke-linejoin="round"/>
<path d="M40.6453 63.7306C40.6453 63.7306 37.6426 59.5748 41.9966 55.2748C46.3506 50.9749 51.9357 55.8754 52.5363 49.3834C53.1368 42.8914 55.9294 37.3724 63.5204 37.4925C71.1114 37.6126 74.9309 45.3837 79.0086 40.7895" stroke="white" stroke-width="0.600552" stroke-linecap="round" stroke-linejoin="round"/>
<path d="M86.8999 40.3931C86.8999 40.3931 92.1968 35.2945 99.1932 37.4925C106.19 39.6905 103.787 50.1401 109.781 50.6085C115.774 51.077 117.648 49.8819 118.861 56.1757C120.074 62.4694 124.999 59.7249 126.464 57.0765" stroke="white" stroke-width="0.600552" stroke-linecap="round" stroke-linejoin="round"/>
<path d="M84.4077 31.9974C84.4077 31.9974 91.296 28.5022 97.2055 29.4271C103.115 30.3519 104.598 38.9158 108.994 38.015" stroke="white" stroke-width="0.600552" stroke-linecap="round" stroke-linejoin="round"/>
<path d="M59.827 31.2287C59.827 31.2287 52.8366 30.4299 49.9359 34.2314C47.0353 38.0329 47.84 43.522 43.8403 44.5249" stroke="white" stroke-width="0.600552" stroke-linecap="round" stroke-linejoin="round"/>
</svg>
