<svg width="150" height="150" viewBox="0 0 150 150" fill="none" xmlns="http://www.w3.org/2000/svg">
<g clip-path="url(#clip0_209_190)">
<path d="M98.8811 146.095C98.1001 146.359 97.3138 146.615 96.5225 146.85C97.3164 146.612 98.1001 146.356 98.8811 146.095Z" fill="#F9EDE0"/>
<path d="M102.799 144.657C101.956 144.993 101.113 145.324 100.254 145.629C101.113 145.322 101.959 144.993 102.799 144.657Z" fill="#F9EDE0"/>
<path d="M75 150C116.421 150 150 116.421 150 75C150 33.5786 116.421 0 75 0C33.5786 0 0 33.5786 0 75C0 116.421 33.5786 150 75 150Z" fill="#EFECE8"/>
<path d="M95.0095 147.279C94.244 147.491 93.4733 147.693 92.6948 147.882C93.4733 147.693 94.244 147.491 95.0095 147.279Z" fill="#F9EDE0"/>
<path d="M69.5665 149.783C68.651 149.718 67.738 149.648 66.8354 149.55C67.7406 149.648 68.6536 149.718 69.5665 149.783Z" fill="#F9EDE0"/>
<path d="M57.3027 147.879C56.5268 147.691 55.7561 147.489 54.988 147.277C55.7561 147.491 56.5268 147.693 57.3027 147.879Z" fill="#F9EDE0"/>
<path d="M65.2836 149.354C64.4638 149.247 63.6465 149.136 62.8345 149.004C63.644 149.136 64.4638 149.245 65.2836 149.354Z" fill="#F9EDE0"/>
<path d="M75 150C73.619 150 72.2509 149.956 70.8879 149.884C72.2509 149.956 73.619 150 75 150Z" fill="#F9EDE0"/>
<path d="M61.2336 148.717C60.4474 148.572 59.6638 148.417 58.8879 148.247C59.6638 148.417 60.4474 148.572 61.2336 148.717Z" fill="#F9EDE0"/>
<path d="M46.1017 144.222C44.9353 143.734 43.7818 143.222 42.6465 142.678C43.7844 143.222 44.9379 143.736 46.1017 144.222Z" fill="#F9EDE0"/>
<path d="M49.7431 145.629C48.887 145.322 48.0413 144.993 47.1982 144.657C48.0413 144.993 48.887 145.322 49.7431 145.629Z" fill="#F9EDE0"/>
<path d="M79.1121 149.884C77.7491 149.956 76.381 150 75 150C76.381 150 77.7491 149.956 79.1121 149.884Z" fill="#F9EDE0"/>
<path d="M83.1646 149.55C82.2595 149.648 81.3465 149.718 80.4336 149.783C81.3465 149.718 82.2595 149.648 83.1646 149.55Z" fill="#F9EDE0"/>
<path d="M91.1147 148.247C90.3363 148.417 89.5552 148.572 88.769 148.717C89.5527 148.572 90.3363 148.417 91.1147 148.247Z" fill="#F9EDE0"/>
<path d="M87.1681 149.002C86.3561 149.134 85.5388 149.245 84.719 149.351C85.5362 149.245 86.3561 149.136 87.1681 149.002Z" fill="#F9EDE0"/>
<path d="M107.338 142.684C106.208 143.224 105.06 143.736 103.898 144.223C105.06 143.736 106.208 143.227 107.338 142.684Z" fill="#F9EDE0"/>
<path d="M53.4775 146.85C52.6835 146.612 51.8999 146.356 51.1189 146.095C51.8999 146.356 52.6835 146.612 53.4775 146.85Z" fill="#F9EDE0"/>
<path d="M103.898 144.223C103.536 144.375 103.166 144.51 102.802 144.654C103.164 144.51 103.534 144.375 103.898 144.223Z" fill="#F9EDE0"/>
<path d="M107.441 142.637C107.408 142.653 107.371 142.668 107.338 142.684C107.371 142.668 107.408 142.655 107.441 142.637Z" fill="#F9EDE0"/>
<path d="M58.8852 148.247C58.3551 148.13 57.8275 148.009 57.3025 147.882C57.8275 148.009 58.3551 148.13 58.8852 148.247Z" fill="#F9EDE0"/>
<path d="M62.8318 149.002C62.2965 148.914 61.7637 148.816 61.231 148.717C61.7663 148.816 62.2965 148.916 62.8318 149.002Z" fill="#F9EDE0"/>
<path d="M70.888 149.884C70.4457 149.86 70.0061 149.814 69.5664 149.783C70.0086 149.814 70.4457 149.86 70.888 149.884Z" fill="#F9EDE0"/>
<path d="M66.8354 149.55C66.3156 149.493 65.8009 149.421 65.2837 149.354C65.8009 149.421 66.3156 149.493 66.8354 149.55Z" fill="#F9EDE0"/>
<path d="M42.6492 142.678C42.6207 142.665 42.5897 142.652 42.5613 142.639C42.5897 142.652 42.6207 142.665 42.6492 142.678Z" fill="#F9EDE0"/>
<path d="M80.4336 149.783C79.9914 149.814 79.5543 149.86 79.1121 149.884C79.5543 149.86 79.9914 149.814 80.4336 149.783Z" fill="#F9EDE0"/>
<path d="M96.5225 146.85C96.0207 147 95.5164 147.14 95.0095 147.279C95.5164 147.14 96.0207 147 96.5225 146.85Z" fill="#F9EDE0"/>
<path d="M100.257 145.629C99.8016 145.792 99.3413 145.94 98.8835 146.095C99.3413 145.94 99.8016 145.792 100.257 145.629Z" fill="#F9EDE0"/>
<path d="M47.2008 144.657C46.8361 144.512 46.4663 144.375 46.1042 144.225C46.4663 144.375 46.8361 144.509 47.2008 144.657Z" fill="#F9EDE0"/>
<path d="M51.1189 146.095C50.6611 145.94 50.1982 145.792 49.7456 145.629C50.1982 145.792 50.6585 145.94 51.1189 146.095Z" fill="#F9EDE0"/>
<path d="M84.7163 149.354C84.199 149.421 83.6844 149.496 83.1646 149.55C83.6844 149.493 84.199 149.421 84.7163 149.354Z" fill="#F9EDE0"/>
<path d="M92.6975 147.879C92.1725 148.006 91.6449 148.128 91.1147 148.244C91.6449 148.13 92.1725 148.009 92.6975 147.879Z" fill="#F9EDE0"/>
<path d="M88.7664 148.717C88.2336 148.816 87.7035 148.916 87.1655 149.002C87.7035 148.916 88.2336 148.816 88.7664 148.717Z" fill="#F9EDE0"/>
<path d="M54.9905 147.279C54.4862 147.14 53.9793 147 53.4775 146.85C53.9793 147 54.4836 147.14 54.9905 147.279Z" fill="#F9EDE0"/>
<path d="M92.1673 80.1569C100.523 74.594 106.035 65.1 106.035 54.3104C106.035 37.1716 92.1388 23.2759 75 23.2759C57.8613 23.2759 43.9656 37.1716 43.9656 54.3104C43.9656 65.1 49.4768 74.594 57.8328 80.1569C57.8328 80.1569 57.8354 80.1595 57.838 80.1595C57.8354 80.1595 57.8354 80.1569 57.8354 80.1569C37.8337 86.1854 22.2595 102.419 17.2449 122.842L17.2475 122.845C18.0647 123.83 18.913 124.792 19.7794 125.736C19.9888 125.966 20.2087 126.186 20.4233 126.411C21.0906 127.12 21.7656 127.818 22.4587 128.501C22.7457 128.783 23.038 129.054 23.3302 129.331C23.9716 129.941 24.6207 130.544 25.2828 131.131C25.6113 131.421 25.9449 131.708 26.2759 131.992C26.925 132.548 27.5819 133.094 28.2518 133.627C28.6035 133.909 28.9578 134.185 29.3121 134.462C29.9897 134.984 30.6776 135.491 31.3733 135.988C31.7328 136.244 32.0871 136.505 32.4518 136.756C33.1863 137.263 33.9337 137.749 34.6863 138.23C35.025 138.445 35.3561 138.667 35.6975 138.879C36.5664 139.415 37.4509 139.927 38.3431 140.428C38.5785 140.56 38.8087 140.703 39.0466 140.832C40.2 141.463 41.3716 142.068 42.5613 142.64C42.5897 142.653 42.6207 142.666 42.6492 142.678C43.7845 143.222 44.938 143.736 46.1044 144.222C46.4664 144.375 46.8363 144.509 47.2009 144.654C48.044 144.991 48.8871 145.322 49.7457 145.627C50.2009 145.79 50.6613 145.937 51.119 146.092C51.9 146.356 52.6863 146.612 53.4776 146.847C53.9794 146.997 54.4837 147.137 54.9906 147.277C55.7561 147.489 56.5268 147.691 57.3052 147.879C57.8302 148.006 58.3578 148.128 58.888 148.244C59.6664 148.415 60.4475 148.57 61.2337 148.715C61.7664 148.813 62.2966 148.914 62.8345 148.999C63.6466 149.131 64.4638 149.242 65.2837 149.348C65.8009 149.416 66.3156 149.491 66.8354 149.545C67.7406 149.643 68.6535 149.713 69.5664 149.778C70.0087 149.809 70.4457 149.855 70.888 149.878C72.2509 149.956 73.619 150 75 150C76.3811 150 77.7492 149.956 79.1121 149.884C79.5544 149.86 79.994 149.814 80.4337 149.783C81.3492 149.718 82.2621 149.648 83.1647 149.55C83.6845 149.493 84.1992 149.421 84.7164 149.353C85.5363 149.247 86.3535 149.136 87.1656 149.004C87.7009 148.916 88.2337 148.818 88.7664 148.72C89.5526 148.575 90.3363 148.42 91.1121 148.249C91.6423 148.133 92.1699 148.011 92.6949 147.884C93.4707 147.696 94.2414 147.494 95.0095 147.282C95.5138 147.142 96.0207 147.003 96.5225 146.853C97.3164 146.615 98.1001 146.359 98.8811 146.097C99.3388 145.942 99.8018 145.795 100.254 145.632C101.11 145.324 101.956 144.996 102.799 144.659C103.164 144.515 103.534 144.378 103.896 144.228C105.057 143.741 106.205 143.232 107.335 142.689C107.369 142.673 107.405 142.658 107.439 142.642C108.628 142.071 109.8 141.466 110.953 140.834C111.191 140.705 111.422 140.563 111.657 140.431C112.549 139.929 113.434 139.417 114.303 138.882C114.644 138.672 114.978 138.45 115.314 138.233C116.066 137.752 116.814 137.263 117.548 136.759C117.91 136.508 118.267 136.249 118.627 135.991C119.322 135.491 120.01 134.984 120.688 134.465C121.045 134.191 121.397 133.911 121.748 133.629C122.416 133.097 123.075 132.551 123.724 131.995C124.058 131.71 124.391 131.423 124.717 131.134C125.379 130.547 126.028 129.944 126.67 129.334C126.96 129.057 127.254 128.783 127.541 128.503C128.235 127.821 128.912 127.122 129.577 126.414C129.789 126.186 130.009 125.966 130.221 125.739C131.087 124.795 131.935 123.833 132.753 122.847L132.755 122.845C127.743 102.419 112.169 86.1854 92.1673 80.1569Z" fill="#C6C3BD"/>
</g>
<defs>
<clipPath id="clip0_209_190">
<rect width="150" height="150" fill="white"/>
</clipPath>
</defs>
</svg>
